<?xml version="1.0" encoding="utf-8"?>
<!-- Generator: Adobe Illustrator 18.1.0, SVG Export Plug-In . SVG Version: 6.00 Build 0)  -->
<!DOCTYPE svg PUBLIC "-//W3C//DTD SVG 1.1//EN" "http://www.w3.org/Graphics/SVG/1.1/DTD/svg11.dtd">
<svg version="1.1" id="Layer_1" xmlns="http://www.w3.org/2000/svg" xmlns:xlink="http://www.w3.org/1999/xlink" x="0px" y="0px"
	 viewBox="72 0 288 288" enable-background="new 72 0 288 288" xml:space="preserve">
<g>
	<g>
		<rect x="129.1" y="18.7" width="0.9" height="172.1"/>
	</g>
</g>
<path d="M281,239.2l11.5-9.9c0.2-0.2,0.5-0.2,0.7,0.1l35.9,41.8c0.1,0.1,0.1,0.2,0.1,0.4c0,0.1-0.1,0.3-0.2,0.3l-11.7,9.9
	c-0.1,0.1-0.2,0.1-0.3,0.1c-0.1,0-0.3-0.1-0.4-0.2L281,239.8c-0.1-0.1-0.1-0.2-0.1-0.4C280.9,239.3,281,239.3,281,239.2z
	 M282.1,239.6l35.2,41l11-9.2l-35.4-41L282.1,239.6z"/>
<path fill="#FFFFFF" d="M252.2,150.9c21.3,0.8,38.4,18.3,38.4,39.8c0,22-17.8,39.8-39.8,39.8c-21.6,0-39.1-17.2-39.8-38.6h0.9
	c0-0.4,0-0.8,0-1.2c0-0.6,0-1.1,0-1.6H211c0.8-20.7,17.6-37.5,38.4-38.2c0.3,0,0.7,0,0.9,0l0,0c0.3,0,0.7,0,0.9,0
	C251.6,150.8,251.9,150.9,252.2,150.9z M215.3,191.9c0.7,19,16.3,34.3,35.5,34.3c19.6,0,35.5-16,35.5-35.5
	c0-18.8-14.6-34.2-33.1-35.4v-0.1c-0.5,0-0.9,0-1.4,0c-0.2,0-0.3,0-0.5,0c-0.2,0-0.3,0-0.5,0c-0.5,0-0.9,0-1.4,0
	c-18.4,0.8-33.2,15.5-34.1,33.9c0,0.6,0,1.1,0,1.6C215.2,191,215.3,191.5,215.3,191.9z"/>
<path d="M276.8,227l6-4.9c0.1-0.1,0.2-0.1,0.4-0.1c0.1,0,0.3,0.1,0.3,0.2l4.9,6c0.2,0.2,0.1,0.5-0.1,0.7l-6,4.9
	c-0.1,0.1-0.2,0.1-0.3,0.1c0,0,0,0-0.1,0c-0.1,0-0.3-0.1-0.3-0.2l-4.9-6C276.5,227.5,276.6,227.2,276.8,227z M277.8,227.4l4.2,5.3
	l5.3-4.2l-4.2-5.3L277.8,227.4z"/>
<path d="M252.2,155.2c-0.3,0-0.7,0-0.9,0c0.2,0,0.3,0,0.5,0c0.5,0,0.9,0,1.4,0v0.1C252.9,155.2,252.5,155.2,252.2,155.2z"/>
<path d="M252.2,156.1c0.3,0,0.7,0,0.9,0.1v34.3c0,0.8-0.7,1.4-1.4,1.4h-35.5c0-0.4,0-0.8,0-1.2c0-0.6,0-1.1,0-1.6h34.1v-32.9
	c0.2,0,0.3,0,0.5,0C251.3,156.1,251.8,156.1,252.2,156.1z"/>
<path d="M251.3,150.8c-0.3,0-0.7,0-0.9,0l0,0c0.2,0,0.3,0,0.5,0C250.9,150.8,251.1,150.8,251.3,150.8z"/>
<path d="M252.2,148.9c0.3,0,0.7,0,0.9,0.1v1.9c-0.5,0-0.9,0-1.4,0c-0.2,0-0.3,0-0.5,0c-0.2,0-0.3,0-0.5,0c-0.2,0-0.3,0-0.5,0v-2
	c0.2,0,0.3,0,0.5,0C251.3,148.9,251.8,148.9,252.2,148.9z"/>
<path d="M252.2,155.2c0.3,0,0.7,0,0.9,0.1v0.9c-0.3,0-0.7-0.1-0.9-0.1c-0.5,0-0.9,0-1.4,0c-0.2,0-0.3,0-0.5,0v-0.9
	c0.3,0,0.7,0,0.9,0C251.6,155.2,251.9,155.2,252.2,155.2z"/>
<path d="M216.3,190.7c0,0.4,0,0.8,0,1.2l0,0C216.3,191.5,216.3,191,216.3,190.7z"/>
<path d="M250.8,226.1c-19.1,0-34.8-15.3-35.5-34.3c0-0.4,0-0.8,0-1.2c0-0.6,0-1.1,0-1.6c0.8-18.4,15.7-33.1,34.1-33.9
	c0.5,0,0.9,0,1.4,0c0.2,0,0.3,0,0.5,0c-0.3,0-0.7,0-0.9,0v0.9c-0.3,0-0.7,0-0.9,0c-17.8,0.8-32.2,15-33,32.9c0,0.6,0,1.1,0,1.6
	s0,0.8,0,1.2l0,0c0.7,18.5,15.9,33.3,34.5,33.3c19.1,0,34.5-15.5,34.5-34.5c0-18.2-14.2-33.2-32.1-34.4v-0.9
	c18.5,1.2,33.1,16.6,33.1,35.4C286.3,210.2,270.3,226.1,250.8,226.1z"/>
<path d="M249.3,150.9c-20.7,0.8-37.5,17.5-38.4,38.2h-1.9c0.8-21.8,18.5-39.3,40.3-40.1c0.3,0,0.7,0,0.9,0v2
	C250,150.8,249.7,150.9,249.3,150.9z"/>
<path d="M211,189c0,0.6,0,1.1,0,1.6c0,0.4,0,0.8,0,1.2h-2c0-0.4,0-0.8,0-1.2c0-0.6,0-1.1,0-1.6H211z"/>
<path d="M210.9,191.9c0.7,21.4,18.3,38.6,39.8,38.6c22,0,39.8-17.8,39.8-39.8c0-21.5-17.1-39-38.4-39.8c-0.3,0-0.7,0-0.9,0
	c0.2,0,0.3,0,0.5,0c0.5,0,0.9,0,1.4,0V149c21.9,1.2,39.3,19.4,39.3,41.7c0,23-18.8,41.8-41.8,41.8c-22.6,0-41.1-18-41.8-40.5
	L210.9,191.9L210.9,191.9z"/>
<path d="M123.8,189h85.2c0,0.6,0,1.1,0,1.6c0,0.4,0,0.8,0,1.2h-86.6c-0.8,0-1.4-0.7-1.4-1.4V18.6c0-0.8,0.7-1.4,1.4-1.4h129.3
	c0.8,0,1.4,0.7,1.4,1.4V149c-0.3,0-0.7,0-0.9-0.1c-0.5,0-0.9,0-1.4,0c-0.2,0-0.3,0-0.5,0V20H123.8V189z"/>
</svg>
