<?xml version="1.0" encoding="utf-8"?>
<!-- Generator: Adobe Illustrator 18.1.0, SVG Export Plug-In . SVG Version: 6.00 Build 0)  -->
<!DOCTYPE svg PUBLIC "-//W3C//DTD SVG 1.1//EN" "http://www.w3.org/Graphics/SVG/1.1/DTD/svg11.dtd">
<svg version="1.1" id="Layer_1" xmlns="http://www.w3.org/2000/svg" xmlns:xlink="http://www.w3.org/1999/xlink" x="0px" y="0px"
	 viewBox="72 0 288 288" enable-background="new 72 0 288 288" xml:space="preserve">
<rect x="133.1" y="11.7" fill="#FFFFFF" stroke="#000000" stroke-width="4" stroke-linejoin="round" stroke-miterlimit="10" width="159.1" height="264.6"/>
<rect x="145.4" y="38.2" fill="#FFFFFF" stroke="#000000" stroke-width="2" stroke-linejoin="round" stroke-miterlimit="10" width="134.2" height="199.8"/>
<path fill="#FFFFFF" stroke="#000000" stroke-width="2" stroke-linejoin="round" stroke-miterlimit="10" d="M212.6,246.7
	L212.6,246.7c-5.8,0-10.3,4.9-10.3,10.3l0,0c0,5.8,4.9,10.3,10.3,10.3l0,0c5.8,0,10.3-4.9,10.3-10.3l0,0
	C222.9,251.6,218.4,246.7,212.6,246.7z"/>
<polygon fill="#FFFFFF" stroke="#000000" stroke-linejoin="round" stroke-miterlimit="10" points="179.1,75.6 179.1,94.4 
	171.7,102.2 152.4,102.2 152.4,75.6 "/>
<polygon fill="#FFFFFF" stroke="#000000" stroke-linejoin="round" stroke-miterlimit="10" points="225.8,75.6 225.8,94.4 
	218.4,102.2 199.1,102.2 199.1,75.6 "/>
<polygon fill="#FFFFFF" stroke="#000000" stroke-linejoin="round" stroke-miterlimit="10" points="225.8,111.6 225.8,130.5 
	218.4,138.1 199.1,138.1 199.1,111.6 "/>
<polygon fill="#FFFFFF" stroke="#000000" stroke-linejoin="round" stroke-miterlimit="10" points="179.1,111.6 179.1,130.5 
	171.7,138.1 152.4,138.1 152.4,111.6 "/>
<polygon fill="#FFFFFF" stroke="#000000" stroke-linejoin="round" stroke-miterlimit="10" points="272.7,111.6 272.7,130.5 
	265.3,138.1 246,138.1 246,111.6 "/>
<polygon fill="#FFFFFF" stroke="#000000" stroke-linejoin="round" stroke-miterlimit="10" points="225.8,147.4 225.8,166.5 
	218.4,174.3 199.1,174.3 199.1,147.4 "/>
<polygon fill="#FFFFFF" stroke="#000000" stroke-linejoin="round" stroke-miterlimit="10" points="272.7,75.6 272.7,94.4 
	265.3,102.2 246,102.2 246,75.6 "/>
</svg>
