<?xml version="1.0" encoding="utf-8"?>
<!-- Generator: Adobe Illustrator 18.1.0, SVG Export Plug-In . SVG Version: 6.00 Build 0)  -->
<!DOCTYPE svg PUBLIC "-//W3C//DTD SVG 1.1//EN" "http://www.w3.org/Graphics/SVG/1.1/DTD/svg11.dtd">
<svg version="1.1" id="Layer_1" xmlns="http://www.w3.org/2000/svg" xmlns:xlink="http://www.w3.org/1999/xlink" x="0px" y="0px"
	 viewBox="0 0 288 288" enable-background="new 0 0 288 288" xml:space="preserve">
<rect x="113.3" y="60" fill="#FFFFFF" stroke="#000000" stroke-linejoin="round" stroke-miterlimit="10" width="66.1" height="109.9"/>
<rect x="118.4" y="71" fill="#FFFFFF" stroke="#000000" stroke-linejoin="round" stroke-miterlimit="10" width="55.7" height="83"/>
<path fill="#FFFFFF" stroke="#000000" stroke-linejoin="round" stroke-miterlimit="10" d="M146.3,157.6L146.3,157.6
	c-2.4,0-4.3,2-4.3,4.3v0c0,2.4,2,4.3,4.3,4.3l0,0c2.4,0,4.3-2,4.3-4.3v0C150.6,159.6,148.7,157.6,146.3,157.6z"/>
<polygon fill="#FFFFFF" stroke="#000000" stroke-width="0.5" stroke-linejoin="round" stroke-miterlimit="10" points="132.4,86.5 
	132.4,94.4 129.3,97.6 121.3,97.6 121.3,86.5 "/>
<polygon fill="#FFFFFF" stroke="#000000" stroke-width="0.5" stroke-linejoin="round" stroke-miterlimit="10" points="151.8,86.5 
	151.8,94.4 148.7,97.6 140.7,97.6 140.7,86.5 "/>
<polygon fill="#FFFFFF" stroke="#000000" stroke-width="0.5" stroke-linejoin="round" stroke-miterlimit="10" points="151.8,101.5 
	151.8,109.3 148.7,112.5 140.7,112.5 140.7,101.5 "/>
<polygon fill="#FFFFFF" stroke="#000000" stroke-width="0.5" stroke-linejoin="round" stroke-miterlimit="10" points="132.4,101.5 
	132.4,109.3 129.3,112.5 121.3,112.5 121.3,101.5 "/>
<polygon fill="#FFFFFF" stroke="#000000" stroke-width="0.5" stroke-linejoin="round" stroke-miterlimit="10" points="171.3,101.5 
	171.3,109.3 168.2,112.5 160.2,112.5 160.2,101.5 "/>
<polygon fill="#FFFFFF" stroke="#000000" stroke-width="0.5" stroke-linejoin="round" stroke-miterlimit="10" points="151.8,116.4 
	151.8,124.3 148.7,127.5 140.7,127.5 140.7,116.4 "/>
<polygon fill="#FFFFFF" stroke="#000000" stroke-width="0.5" stroke-linejoin="round" stroke-miterlimit="10" points="171.3,86.5 
	171.3,94.4 168.2,97.6 160.2,97.6 160.2,86.5 "/>
</svg>
