<?xml version="1.0" encoding="utf-8"?>
<!-- Generator: Adobe Illustrator 18.1.0, SVG Export Plug-In . SVG Version: 6.00 Build 0)  -->
<!DOCTYPE svg PUBLIC "-//W3C//DTD SVG 1.1//EN" "http://www.w3.org/Graphics/SVG/1.1/DTD/svg11.dtd">
<svg version="1.1" id="Layer_1" xmlns="http://www.w3.org/2000/svg" xmlns:xlink="http://www.w3.org/1999/xlink" x="0px" y="0px"
	 viewBox="74.3 42.9 144 144" enable-background="new 74.3 42.9 144 144" xml:space="preserve">
<rect x="105.5" y="47" fill="#FFFFFF" stroke="#000000" stroke-linejoin="round" stroke-miterlimit="10" width="81.7" height="135.9"/>
<rect x="111.8" y="60.6" fill="#FFFFFF" stroke="#000000" stroke-linejoin="round" stroke-miterlimit="10" width="68.9" height="102.6"/>
<path fill="#FFFFFF" stroke="#000000" stroke-linejoin="round" stroke-miterlimit="10" d="M146.3,167.7L146.3,167.7
	c-3,0-5.3,2.5-5.3,5.3l0,0c0,3,2.5,5.3,5.3,5.3l0,0c3,0,5.3-2.5,5.3-5.3l0,0C151.6,170.2,149.3,167.7,146.3,167.7z"/>
<polygon fill="#FFFFFF" stroke="#000000" stroke-width="0.5" stroke-linejoin="round" stroke-miterlimit="10" points="129.1,79.8 
	129.1,89.5 125.3,93.5 115.4,93.5 115.4,79.8 "/>
<polygon fill="#FFFFFF" stroke="#000000" stroke-width="0.5" stroke-linejoin="round" stroke-miterlimit="10" points="153.1,79.8 
	153.1,89.5 149.3,93.5 139.4,93.5 139.4,79.8 "/>
<polygon fill="#FFFFFF" stroke="#000000" stroke-width="0.5" stroke-linejoin="round" stroke-miterlimit="10" points="153.1,98.3 
	153.1,108 149.3,111.9 139.4,111.9 139.4,98.3 "/>
<polygon fill="#FFFFFF" stroke="#000000" stroke-width="0.5" stroke-linejoin="round" stroke-miterlimit="10" points="129.1,98.3 
	129.1,108 125.3,111.9 115.4,111.9 115.4,98.3 "/>
<polygon fill="#FFFFFF" stroke="#000000" stroke-width="0.5" stroke-linejoin="round" stroke-miterlimit="10" points="177.2,98.3 
	177.2,108 173.4,111.9 163.5,111.9 163.5,98.3 "/>
<polygon fill="#FFFFFF" stroke="#000000" stroke-width="0.5" stroke-linejoin="round" stroke-miterlimit="10" points="153.1,116.7 
	153.1,126.5 149.3,130.5 139.4,130.5 139.4,116.7 "/>
<polygon fill="#FFFFFF" stroke="#000000" stroke-width="0.5" stroke-linejoin="round" stroke-miterlimit="10" points="177.2,79.8 
	177.2,89.5 173.4,93.5 163.5,93.5 163.5,79.8 "/>
</svg>
