<?xml version="1.0" encoding="utf-8"?>
<!-- Generator: Adobe Illustrator 18.1.0, SVG Export Plug-In . SVG Version: 6.00 Build 0)  -->
<!DOCTYPE svg PUBLIC "-//W3C//DTD SVG 1.1//EN" "http://www.w3.org/Graphics/SVG/1.1/DTD/svg11.dtd">
<svg version="1.1" id="Layer_1" xmlns="http://www.w3.org/2000/svg" xmlns:xlink="http://www.w3.org/1999/xlink" x="0px" y="0px"
	 viewBox="0 0 144 144" enable-background="new 0 0 144 144" xml:space="preserve">
<path fill="none" stroke="#000000" stroke-miterlimit="10" d="M46.7,86H39c-7.3,0-13.3-5.9-13.3-13.3v-8.8c0-7.3,5.9-13.3,13.3-13.3
	h7.7c7.3,0,13.3,5.9,13.3,13.3v8.8C59.9,80,54,86,46.7,86z"/>
<rect x="39.3" y="41.5" fill="none" stroke="#000000" stroke-miterlimit="10" width="7" height="7.5"/>
<rect x="35.7" y="31.3" fill="none" stroke="#000000" stroke-miterlimit="10" width="14.3" height="8.7"/>
<rect x="38.3" y="26" fill="none" stroke="#000000" stroke-miterlimit="10" width="1.9" height="4"/>
<rect x="45.4" y="26" fill="none" stroke="#000000" stroke-miterlimit="10" width="1.9" height="4"/>
<line fill="none" stroke="#000000" stroke-miterlimit="10" x1="37.4" y1="50.7" x2="37.4" y2="86"/>
<line fill="none" stroke="#000000" stroke-miterlimit="10" x1="48.2" y1="50.7" x2="48.2" y2="86"/>
<path fill="none" stroke="#000000" stroke-width="2" stroke-miterlimit="10" d="M78.3,87.9l0.8,21.4H31c-2.1,0-4.1-0.9-5.4-2.5
	L11.8,90.3l-0.1-0.1C4.9,83,0.7,73.2,0.7,62.4c0-22.1,17.6-40.1,39.2-40.1c17,0,31.4,11,36.9,26.4c1.5,4.3,2.4,8.9,2.4,13.7
	c0,1.2,0,2.3-0.1,3.4L86.7,85L78.3,87.9z"/>
<path fill="#FFFFFF" stroke="#000000" stroke-miterlimit="10" d="M46.6,1.4h-7.5c-1.9,0-3.4,1.5-3.4,3.4v20H50v-20
	C50,2.9,48.5,1.4,46.6,1.4z"/>
<path fill="none" stroke="#000000" stroke-width="2" stroke-miterlimit="10" d="M41.1,87.7c1.2,11.7,4.7,21.1,11.2,31
	c6.5,9.8,16,17.8,27.2,21.4c10.8,3.4,22.9,2.6,33.1-2.2c4.4-2.1,8.6-5,11.5-9c2-2.8,3.2-6.1,3.4-9.5"/>
<rect x="120.8" y="78" fill="none" stroke="#000000" stroke-width="2" stroke-miterlimit="10" width="22.5" height="38.9"/>
<rect x="123.9" y="83.3" fill="none" stroke="#000000" stroke-miterlimit="10" width="16.8" height="26"/>
<circle fill="none" stroke="#000000" stroke-width="0.5" stroke-miterlimit="10" cx="132" cy="112.8" r="1.9"/>
</svg>
