<?xml version="1.0" encoding="utf-8"?>
<!-- Generator: Adobe Illustrator 18.1.0, SVG Export Plug-In . SVG Version: 6.00 Build 0)  -->
<!DOCTYPE svg PUBLIC "-//W3C//DTD SVG 1.1//EN" "http://www.w3.org/Graphics/SVG/1.1/DTD/svg11.dtd">
<svg version="1.1" id="Layer_1" xmlns="http://www.w3.org/2000/svg" xmlns:xlink="http://www.w3.org/1999/xlink" x="0px" y="0px"
	 viewBox="72 0 288 288" enable-background="new 72 0 288 288" xml:space="preserve">
<g>
	<path d="M167.7,171.2h-14.7c-14.3,0-25.9-11.6-25.9-25.9v-16.8c0-14.3,11.6-25.9,25.9-25.9h14.7c14.3,0,25.9,11.6,25.9,25.9v16.8
		C193.4,159.6,181.8,171.2,167.7,171.2z M153.1,103.7c-13.7,0-24.9,11.2-24.9,24.9v16.8c0,13.7,11.2,24.9,24.9,24.9h14.7
		c13.5,0,24.7-11.2,24.9-24.9v-16.8c0-13.7-11.2-24.9-24.9-24.9H153.1z"/>
</g>
<g>
	<path d="M167.5,100.6h-14.4V85.3h14.4V100.6z M154.1,99.6h12.4V86.3h-12.4V99.6z"/>
</g>
<g>
	<path d="M174.5,83.4h-28.3V65.8h28.3V83.4z M147.3,82.4h26.3V66.8h-26.3V82.4z"/>
</g>
<g>
	<path d="M155.8,64.4h-4.6v-8.6h4.6V64.4z M152.2,63.4h2.6v-6.6h-2.6V63.4z"/>
</g>
<g>
	<path d="M169.4,64.4h-4.6v-8.6h4.6V64.4z M165.8,63.4h2.6v-6.6h-2.6V63.4z"/>
</g>
<g>
	<rect x="149.5" y="103.4" width="1" height="67.3"/>
</g>
<g>
	<rect x="170.1" y="103.4" width="1" height="67.3"/>
</g>
<g>
	<path d="M230.6,216.1h-92.8c-4.4,0-8.4-1.9-11.1-5.1l-26.4-31.6C86.5,164.9,79,145.8,79,125.7c0-42.7,34-77.5,75.8-77.5
		c31.8,0,60.4,20.5,71.3,51c3.1,8.8,4.6,17.7,4.6,26.5c0,2.2,0,4.3-0.2,6.3l14.8,37.4L229,175L230.6,216.1z M154.8,50.2
		C114.1,50.2,81,84,81,125.7c0,19.6,7.4,38.2,20.7,52.3l0.2,0.2l26.4,31.5c2.3,2.8,5.8,4.4,9.5,4.4h90.7l-1.5-40.5l15.7-5.4
		l-14.2-35.9l0-0.2c0.2-2.1,0.2-4.2,0.2-6.4c0-8.5-1.5-17.2-4.5-25.8C213.6,70.2,185.7,50.2,154.8,50.2z"/>
</g>
<g>
	<path fill="#FFFFFF" d="M167.6,9.3h-14.3c-3.6,0-6.5,2.9-6.5,6.5v38.1H174V15.8C174,12.2,171.2,9.3,167.6,9.3z"/>
	<path d="M174.5,54.4h-28.3V15.8c0-3.9,3.1-7,7-7h14.3c3.9,0,7,3.1,7,7V54.4z M147.3,53.4h26.3V15.8c0-3.4-2.6-6-6-6h-14.3
		c-3.4,0-6,2.6-6,6V53.4z"/>
</g>
<g>
	<path d="M256.4,278.8c-8.9,0-17.9-1.3-26.4-4c-20.6-6.6-39.2-21.2-52.4-41.2C165,214.4,158.3,196,156.1,174l2-0.2
		c2.2,21.9,8.6,39.5,21.2,58.7c13,19.6,31.2,33.9,51.4,40.4c20.4,6.4,43.2,4.9,62.4-4.1c9.5-4.5,16.7-10.2,21.6-16.8
		c3.8-5.2,5.9-11.3,6.3-17.6l2,0.1c-0.4,6.6-2.7,13.1-6.7,18.6c-5,6.9-12.5,12.8-22.3,17.5C282.2,276.1,269.3,278.8,256.4,278.8z"/>
</g>
<g>
	<path d="M353,230.6h-44.9v-76.2H353V230.6z M310.1,228.6H351v-72.2h-40.9V228.6z"/>
</g>
<g>
	<path d="M347.5,215.6h-33V165h33V215.6z M315.5,214.6h31V166h-31V214.6z"/>
</g>
<g>
	<path d="M330.4,225.7c-2.1,0-3.9-1.7-3.9-3.9s1.7-3.9,3.9-3.9s3.9,1.7,3.9,3.9S332.6,225.7,330.4,225.7z M330.4,218.4
		c-1.9,0-3.4,1.5-3.4,3.4s1.5,3.4,3.4,3.4s3.4-1.5,3.4-3.4S332.3,218.4,330.4,218.4z"/>
</g>
</svg>
