<?xml version="1.0" encoding="utf-8"?>
<!-- Generator: Adobe Illustrator 18.1.0, SVG Export Plug-In . SVG Version: 6.00 Build 0)  -->
<!DOCTYPE svg PUBLIC "-//W3C//DTD SVG 1.1//EN" "http://www.w3.org/Graphics/SVG/1.1/DTD/svg11.dtd">
<svg version="1.1" id="Layer_1" xmlns="http://www.w3.org/2000/svg" xmlns:xlink="http://www.w3.org/1999/xlink" x="0px" y="0px"
	 viewBox="0 0 369.3 174.1" enable-background="new 0 0 369.3 174.1" xml:space="preserve">
<g>
	<path fill="#996666" d="M64.4,102H0V37.5h64.4V102z M4,98h56.4V41.5H4V98z"/>
	<path fill="#CCCCCC" d="M369.3,102.5h-65.4V37h65.4V102.5z M308.9,97.5h55.4V42h-55.4V97.5z"/>
	<path fill="#666699" d="M141.2,103.5H75.6V0.5h65.7V103.5z M79.6,99.5h57.7v-95H79.6V99.5z"/>
	<path fill="#666699" d="M215.3,103.5h-65.7V23.4h65.7V103.5z M153.6,99.5h57.7V27.4h-57.7V99.5z"/>
	<path fill="#9899CB" d="M293.4,104h-66.7V0h66.7V104z M231.7,99h56.7V5h-56.7V99z"/>
	<rect x="12.4" y="39.9" fill="#996666" width="1" height="60.1"/>
	<rect x="160.4" y="25.4" fill="#666699" width="1" height="76.1"/>
	<rect x="314.4" y="38.1" fill="#CCCCCC" width="1" height="60.5"/>
	<rect x="87.4" y="2.5" fill="#666699" width="1" height="97.5"/>
	<rect x="239" y="2.5" fill="#9899CB" width="1" height="97.5"/>
</g>
<text transform="matrix(1 0 0 1 57.3527 142.405)" fill="#666699" font-family="'ACaslonPro-Bold'" font-size="45.3469">Audio Library</text>
</svg>
