<?xml version="1.0" encoding="utf-8"?>
<!-- Generator: Adobe Illustrator 18.1.0, SVG Export Plug-In . SVG Version: 6.00 Build 0)  -->
<!DOCTYPE svg PUBLIC "-//W3C//DTD SVG 1.1//EN" "http://www.w3.org/Graphics/SVG/1.1/DTD/svg11.dtd">
<svg version="1.1" id="Layer_1" xmlns="http://www.w3.org/2000/svg" xmlns:xlink="http://www.w3.org/1999/xlink" x="0px" y="0px"
	 viewBox="0 33 288 194" enable-background="new 0 33 288 194" xml:space="preserve">
<g>
	<path fill="#996666" d="M50.2,155.7H0v-50.3h50.2V155.7z M3.1,152.5h44v-44.1h-44V152.5z"/>
	<path fill="#CCCCCC" d="M288,156h-51V105h51V156z M240.9,152.1h43.2v-43.3h-43.2V152.1z"/>
	<path fill="#666699" d="M110.1,156.8H59V76.5h51.2L110.1,156.8L110.1,156.8z M62.1,153.7h45V79.6h-45V153.7z"/>
	<path fill="#666699" d="M167.9,156.8h-51.2V94.4h51.2V156.8z M119.8,153.7h45V97.5h-45V153.7z"/>
	<path fill="#9899CB" d="M228.8,157.2h-52V56h52V157.2z M180.7,153.3h44.2V59.9h-44.2V153.3z"/>
	<rect x="9.7" y="107.2" fill="#996666" width="0.8" height="46.9"/>
	<rect x="125.1" y="95.9" fill="#666699" width="0.8" height="59.3"/>
	<rect x="245.2" y="105.8" fill="#CCCCCC" width="0.8" height="47.2"/>
	<rect x="68.2" y="78.1" fill="#666699" width="0.8" height="76"/>
	<rect x="186.4" y="57.9" fill="#9899CB" width="0.8" height="96.1"/>
</g>
<text transform="matrix(1 0 0 1 44.7266 187.169)" fill="#666699" font-family="'ACaslonPro-Bold'" font-size="35.364">Audio Library</text>
</svg>
