<?xml version="1.0" encoding="utf-8"?>
<!-- Generator: Adobe Illustrator 18.1.0, SVG Export Plug-In . SVG Version: 6.00 Build 0)  -->
<!DOCTYPE svg PUBLIC "-//W3C//DTD SVG 1.1//EN" "http://www.w3.org/Graphics/SVG/1.1/DTD/svg11.dtd">
<svg version="1.1" id="Layer_1" xmlns="http://www.w3.org/2000/svg" xmlns:xlink="http://www.w3.org/1999/xlink" x="0px" y="0px"
	 viewBox="0 134.8 288 167.9" enable-background="new 0 134.8 288 167.9" xml:space="preserve">
<path d="M50.2,234.5H0v-50.3h50.2V234.5z M3.1,231.3h44v-44.1h-44C3.1,187.2,3.1,231.3,3.1,231.3z"/>
<path d="M288,234.8h-51v-51h51V234.8z M240.9,230.9h43.2v-43.3h-43.2L240.9,230.9L240.9,230.9z"/>
<path d="M110.1,235.6H59v-80.3h51.2L110.1,235.6L110.1,235.6z M62.1,232.5h45v-74.1h-45V232.5z"/>
<path d="M167.9,235.6h-51.2v-62.4h51.2V235.6z M119.8,232.5h45v-56.2h-45V232.5z"/>
<path d="M228.8,236h-52V134.8h52V236z M180.7,232.1h44.2v-93.4h-44.2V232.1z"/>
<rect x="9.7" y="186" width="0.8" height="46.9"/>
<rect x="125.1" y="174.7" width="0.8" height="59.3"/>
<rect x="245.2" y="184.6" width="0.8" height="47.2"/>
<rect x="68.2" y="156.9" width="0.8" height="76"/>
<rect x="186.4" y="136.7" width="0.8" height="96.1"/>
<text transform="matrix(1 0 0 1 36.7266 278.0002)" font-family="'ACaslonPro-Bold'" font-size="35.364">Audio Library</text>
</svg>
