<?xml version="1.0" encoding="utf-8"?>
<!-- Generator: Adobe Illustrator 18.1.0, SVG Export Plug-In . SVG Version: 6.00 Build 0)  -->
<!DOCTYPE svg PUBLIC "-//W3C//DTD SVG 1.1//EN" "http://www.w3.org/Graphics/SVG/1.1/DTD/svg11.dtd">
<svg version="1.1" id="Layer_1" xmlns="http://www.w3.org/2000/svg" xmlns:xlink="http://www.w3.org/1999/xlink" x="0px" y="0px"
	 viewBox="-3.4 -3.4 294.9 294.9" enable-background="new -3.4 -3.4 294.9 294.9" xml:space="preserve">
<g>
	<path d="M144,291.4C62.7,291.4-3.4,225.3-3.4,144S62.7-3.4,144-3.4S291.4,62.7,291.4,144S225.3,291.4,144,291.4z M144,5.6
		C67.7,5.6,5.6,67.7,5.6,144S67.7,282.4,144,282.4S282.4,220.3,282.4,144S220.3,5.6,144,5.6z"/>
</g>
<g>
	<path d="M109.5,246.9V136.1H91.5v-17.9h18.1v-6.2c0-18.1,4-34.5,14.9-44.9c8.7-8.5,20.4-11.9,31.3-11.9c8.3,0,15.3,1.9,20,3.6
		L172.5,77c-3.4-1.5-8.3-3-14.9-3c-20,0-24.9,17.4-24.9,37.2v6.8h31.1v18.1h-31.1v110.8H109.5z"/>
</g>
</svg>
