<?xml version="1.0" encoding="utf-8"?>
<!-- Generator: Adobe Illustrator 18.1.0, SVG Export Plug-In . SVG Version: 6.00 Build 0)  -->
<!DOCTYPE svg PUBLIC "-//W3C//DTD SVG 1.1//EN" "http://www.w3.org/Graphics/SVG/1.1/DTD/svg11.dtd">
<svg version="1.1" id="Layer_1" xmlns="http://www.w3.org/2000/svg" xmlns:xlink="http://www.w3.org/1999/xlink" x="0px" y="0px"
	 viewBox="0 0 135.4 135.4" enable-background="new 0 0 135.4 135.4" xml:space="preserve">
<circle fill="none" stroke="#000000" stroke-miterlimit="10" cx="67.7" cy="67.7" r="67.2"/>
<g>
	<path d="M35.7,77.2v5.9h5.3v2.8h-5.3v11c0,2.5,0.7,4,2.8,4c1,0,1.7-0.1,2.2-0.3l0.2,2.8c-0.7,0.3-1.9,0.5-3.3,0.5
		c-1.7,0-3.1-0.5-4-1.6c-1.1-1.1-1.4-2.9-1.4-5.3V85.9h-3.2v-2.8h3.2v-4.9L35.7,77.2z"/>
	<path d="M62.4,98c0,2.1,0,4,0.2,5.6h-3.3l-0.2-3.3H59c-1,1.7-3.1,3.8-6.8,3.8c-3.2,0-7.1-1.8-7.1-9v-12h3.7v11.3
		c0,3.9,1.2,6.5,4.6,6.5c2.5,0,4.2-1.7,4.9-3.4c0.2-0.5,0.3-1.2,0.3-1.9V83.1h3.7V98z"/>
	<path d="M68.4,103.5c0.1-1.4,0.2-3.5,0.2-5.3V73.5h3.7v12.9h0.1c1.3-2.3,3.7-3.8,7-3.8c5.1,0,8.7,4.2,8.6,10.4c0,7.3-4.6,11-9.2,11
		c-3,0-5.3-1.1-6.9-3.8h-0.1l-0.2,3.4H68.4z M72.3,95.3c0,0.5,0.1,0.9,0.2,1.4c0.7,2.6,2.9,4.4,5.6,4.4c3.9,0,6.2-3.2,6.2-7.9
		c0-4.1-2.1-7.6-6.1-7.6c-2.5,0-4.9,1.7-5.7,4.6c-0.1,0.4-0.2,0.9-0.2,1.5V95.3z"/>
	<path d="M94.7,94c0.1,5,3.3,7.1,7,7.1c2.7,0,4.3-0.5,5.7-1.1l0.6,2.7c-1.3,0.6-3.6,1.3-6.8,1.3c-6.3,0-10.1-4.1-10.1-10.3
		c0-6.2,3.6-11,9.6-11c6.7,0,8.5,5.9,8.5,9.6c0,0.8-0.1,1.4-0.1,1.7H94.7z M105.6,91.3c0-2.4-1-6-5.2-6c-3.8,0-5.4,3.5-5.7,6H105.6z
		"/>
</g>
<rect x="14.2" y="27.1" width="102.7" height="49.7"/>
<g>
	<path fill="#FFFFFF" d="M33.6,39.4L39,54.1c0.6,1.6,1.2,3.6,1.6,5.1h0.1c0.5-1.5,1-3.4,1.6-5.2l4.9-14.6H52l-6.8,17.7
		C42,65.7,39.8,70,36.7,72.7c-2.2,2-4.4,2.7-5.6,2.9L30,71.8c1.1-0.4,2.6-1.1,4-2.2c1.2-1,2.8-2.7,3.8-5c0.2-0.5,0.4-0.8,0.4-1.1
		s-0.1-0.6-0.3-1.2l-9.2-22.9H33.6z"/>
	<path fill="#FFFFFF" d="M78.1,51.6c0,9.2-6.4,13.2-12.4,13.2c-6.7,0-11.9-4.9-11.9-12.8c0-8.3,5.4-13.2,12.3-13.2
		C73.3,38.8,78.1,44,78.1,51.6z M58.4,51.9c0,5.4,3.1,9.6,7.6,9.6c4.3,0,7.6-4.1,7.6-9.7c0-4.2-2.1-9.6-7.5-9.6S58.4,47.2,58.4,51.9
		z"/>
	<path fill="#FFFFFF" d="M104.6,57.5c0,2.6,0.1,4.8,0.2,6.8h-4l-0.3-4.1h-0.1c-1.2,2-3.8,4.6-8.2,4.6c-3.9,0-8.6-2.2-8.6-10.9V39.4
		h4.5v13.8c0,4.7,1.4,7.9,5.5,7.9c3,0,5.1-2.1,6-4.1c0.3-0.7,0.4-1.5,0.4-2.3V39.4h4.5V57.5z"/>
</g>
</svg>
