<?xml version="1.0" encoding="utf-8"?>
<!-- Generator: Adobe Illustrator 18.1.0, SVG Export Plug-In . SVG Version: 6.00 Build 0)  -->
<!DOCTYPE svg PUBLIC "-//W3C//DTD SVG 1.1//EN" "http://www.w3.org/Graphics/SVG/1.1/DTD/svg11.dtd">
<svg version="1.1" id="Layer_1" xmlns="http://www.w3.org/2000/svg" xmlns:xlink="http://www.w3.org/1999/xlink" x="0px" y="0px"
	 viewBox="0 0 135.4 135.4" enable-background="new 0 0 135.4 135.4" xml:space="preserve">
<circle fill="none" stroke="#000000" stroke-miterlimit="10" cx="67.7" cy="67.7" r="67.2"/>
<path fill="none" stroke="#000000" stroke-miterlimit="10" d="M117.6,50.9c2.4,0.4,6.7,1.3,11.9,2.5c-3.5,1.8-8.8,1.8-12.4,1.6
	c-0.2,0.7-0.3,1.5-0.6,2.2c0,0,0,0,0,0c-0.2,0.4-2.6,4.7-7,10.5c-14.6,19.4-41,52.6-94.1,27.4c0,0,12-3.8,25-11.9
	C19.4,78,18.1,70.5,18,67.1c7.9,3.5,23.9,4.6,37.2,4.9C18,57.4,18.7,46.7,19.7,42.5c6.8,5.4,21.8,10.4,34.6,14
	C22,42.9,22.7,32.9,23.6,28.9c9.4,7.4,34.5,14.2,47.7,17.4c1.8-11.1,11.4-19.6,23-19.6c10.6,0,19.6,7.1,22.4,16.9
	c3.5-0.6,9-1.2,12.8,0.3c-5.3,1.8-9.7,3.2-12,3.8c0.1,0.8,0.1,1.5,0.1,2.3C117.6,50.4,117.6,50.7,117.6,50.9z"/>
</svg>
