<?xml version="1.0" encoding="utf-8"?>
<!-- Generator: Adobe Illustrator 18.1.0, SVG Export Plug-In . SVG Version: 6.00 Build 0)  -->
<!DOCTYPE svg PUBLIC "-//W3C//DTD SVG 1.1//EN" "http://www.w3.org/Graphics/SVG/1.1/DTD/svg11.dtd">
<svg version="1.1" id="Layer_1" xmlns="http://www.w3.org/2000/svg" xmlns:xlink="http://www.w3.org/1999/xlink" x="0px" y="0px"
	 viewBox="-3.4 -3.4 294.9 294.9" enable-background="new -3.4 -3.4 294.9 294.9" xml:space="preserve">
<g>
	<path d="M144,291.4C62.7,291.4-3.4,225.3-3.4,144S62.7-3.4,144-3.4S291.4,62.7,291.4,144S225.3,291.4,144,291.4z M144,5.6
		C67.7,5.6,5.6,67.7,5.6,144S67.7,282.4,144,282.4S282.4,220.3,282.4,144S220.3,5.6,144,5.6z"/>
</g>
<g>
	<g>
		<path d="M93.2,141.5v-34.5L75.3,60h9.8l7.3,20.4c2.1,5.7,4.2,12.1,6,18.4h0.2c1.7-6.3,3.8-12.5,5.9-18.8l6.9-20.1h9.8l-18.8,46.7
			v34.8H93.2z"/>
	</g>
	<g>
		<path d="M157.1,112.3c0,22.6-10.5,30.2-19.5,30.2c-10.5,0-19-9.6-19-30.1c0-21.4,9.6-30.4,19.6-30.4
			C148.6,82,157.1,91.8,157.1,112.3z M127.9,112.3c0,9.7,1.7,22.9,10.2,22.9c8,0,9.6-13.8,9.6-22.9c0-9-1.6-22.7-9.8-22.7
			C129.5,89.5,127.9,103.3,127.9,112.3z"/>
	</g>
	<g>
		<path d="M202.5,125.6c0,6.5,0.4,11.6,0.5,16h-8.1l-0.6-6.2h-0.2c-1.8,2.9-6.3,7.1-12.6,7.1c-10.3,0-14.3-8-14.3-22.5V83h9.3v35.7
			c0,9.2,1.5,16,7.9,16c5.4,0,7.9-5.1,8.3-7.7c0.4-1.6,0.5-3.4,0.5-5.3V83h9.3V125.6z"/>
	</g>
</g>
<g>
	<path d="M205.9,249H84.1C71.3,249,61,238.7,61,225.9c0-16.2,0-34,0-53.8c0-12.8,10.3-23.1,23.1-23.1h121.8
		c12.8,0,23.1,10.3,23.1,23.1v53.8C229,238.7,218.7,249,205.9,249z"/>
</g>
<g>
	<g>
		<path fill="#FFFFFF" d="M88.1,169.1H75.7v-6.9h32.5v6.9H95.8V230h-7.7V169.1z"/>
	</g>
	<g>
		<path fill="#FFFFFF" d="M138.9,216.7c0,5.4,0.3,9.7,0.4,13.3h-6.7l-0.5-5.1h-0.2c-1.5,2.4-5.2,5.9-10.5,5.9
			c-8.6,0-11.9-6.6-11.9-18.7v-30.8h7.7V211c0,7.6,1.2,13.3,6.5,13.3c4.5,0,6.5-4.2,6.9-6.4c0.3-1.3,0.4-2.8,0.4-4.4v-32.1h7.7
			V216.7z"/>
	</g>
	<g>
		<path fill="#FFFFFF" d="M149.2,230c0.1-2.8,0.4-8.4,0.4-11.7v-58h7.7V187h0.2c2.5-4.8,6.1-6.5,10.3-6.5c7.5,0,13.3,8.8,13.3,24.7
			c0,17.6-7.2,25.7-14.8,25.7c-5.1,0-7.7-3-9.7-7.1h-0.3l-0.5,6.3H149.2z M157.4,212.8c0,1.1,0,2.2,0.3,3c1.8,7.2,5.1,8.6,7.2,8.6
			c6.2,0,8.5-8.5,8.5-18.8c0-9.8-2.3-18.4-8.6-18.4c-3.6,0-6.6,4.5-7.2,8.7c-0.2,1.1-0.2,2.3-0.2,3.4V212.8z"/>
	</g>
	<g>
		<path fill="#FFFFFF" d="M195.3,206.4c0.1,14.9,5.9,18.1,11.6,18.1c3.3,0,6.1-0.8,8-1.9l1.2,5.7c-2.7,1.5-6.8,2.3-10.7,2.3
			c-11.7,0-17.7-9.6-17.7-24.4c0-15.8,6.6-25.7,16.4-25.7c10,0,13.9,10.5,13.9,21.5c0,1.8,0,3.1-0.1,4.3H195.3z M210.6,200.6
			c0.2-9.8-3.5-14.1-7.2-14.1c-5,0-7.6,7.4-7.9,14.1H210.6z"/>
	</g>
</g>
</svg>
