<?xml version="1.0" encoding="utf-8"?>
<!-- Generator: Adobe Illustrator 18.1.0, SVG Export Plug-In . SVG Version: 6.00 Build 0)  -->
<!DOCTYPE svg PUBLIC "-//W3C//DTD SVG 1.1//EN" "http://www.w3.org/Graphics/SVG/1.1/DTD/svg11.dtd">
<svg version="1.1" id="Layer_1" xmlns="http://www.w3.org/2000/svg" xmlns:xlink="http://www.w3.org/1999/xlink" x="0px" y="0px"
	 viewBox="-3.4 -3.4 294.9 294.9" enable-background="new -3.4 -3.4 294.9 294.9" xml:space="preserve">
<g>
	<path d="M144,291.4C62.7,291.4-3.4,225.3-3.4,144S62.7-3.4,144-3.4S291.4,62.7,291.4,144S225.3,291.4,144,291.4z M144,5.6
		C67.7,5.6,5.6,67.7,5.6,144S67.7,282.4,144,282.4S282.4,220.3,282.4,144S220.3,5.6,144,5.6z"/>
</g>
<g>
	<path d="M103.2,228.9c-23.9,0-49.9-6.6-77.3-19.6l-5.7-2.7l6.1-1.9c0.2-0.1,22.5-7.2,47.6-22c-29-8.1-43.3-19.6-43.8-35.1l-0.1-4
		l3.6,1.6c11.5,5.1,33.6,8.4,64.3,9.8c-47.9-20.5-68.9-40.3-64.1-60.4l0.9-3.8l3.1,2.4c7.7,6.1,21.3,12.6,40.4,19.3
		C50.3,96.8,38.5,81.4,42,65.7l0.9-3.9l3.1,2.5c8.2,6.5,31.9,19.7,97.9,35.9c5.1-24,26.1-41.1,50.9-41.1c22.4,0,42.4,14.5,49.4,35.6
		c11.2-1.7,20.2-1.3,26.4,1.1l6.3,2.5l-6.5,2.2c-10.2,3.5-18.5,6.1-23.7,7.6c0,1,0,1.9,0,2.8c5.4,1,13.8,2.8,23.4,5l6.7,1.5
		l-6.1,3.1c-5,2.6-12.1,3.9-21.2,3.9c-1.4,0-2.8,0-4.4-0.1c-0.2,1-0.5,2-0.9,3.1l-0.1,0.1c-0.7,1.3-6,10.7-15.1,22.7
		C208.5,177.8,170,228.9,103.2,228.9z M33.7,207.4c24.6,11,48,16.5,69.6,16.5c27.7,0,52.5-8.8,75.7-26.8
		c19.2-14.9,33.9-33.5,46.2-49.8c9.4-12.4,14.2-21.1,14.6-21.9c0.3-0.7,0.5-1.6,0.7-2.5c0.1-0.6,0.3-1.2,0.4-1.8l0.5-1.9l2,0.1
		c2.2,0.1,4.2,0.2,6.2,0.2c3.9,0,7.3-0.2,10.3-0.7c-6.8-1.5-12.4-2.6-16-3.2l-2.1-0.3v-4c0-1.6,0-3-0.2-4.6l-0.3-2.2l2.1-0.6
		c3.4-0.9,9.2-2.7,16.5-5.1c-4.8-0.3-10.6,0.1-17.1,1.2l-2.2,0.4l-0.6-2.2c-5.7-20.1-24.3-34.1-45.2-34.1
		c-23.2,0-42.7,16.6-46.5,39.6l-0.4,2.7l-2.6-0.6c-28-6.8-76.6-20-98.9-34.9c-0.1,16.4,21.4,33.9,64.3,51.9l-1.6,4.7
		c-34.1-9.6-57.9-18.9-71-27.7c-0.3,17.6,24.7,36.4,74.5,55.9l13.1,5.1l-14.1-0.3c-35.7-0.8-61.2-3.8-76-9
		c4.5,17.8,34.8,25.4,45.2,27.9l5.7,1.4l-5,3.1C61.8,196.2,42.9,203.9,33.7,207.4z"/>
</g>
</svg>
