<?xml version="1.0" encoding="utf-8"?>
<!-- Generator: Adobe Illustrator 18.1.0, SVG Export Plug-In . SVG Version: 6.00 Build 0)  -->
<!DOCTYPE svg PUBLIC "-//W3C//DTD SVG 1.1//EN" "http://www.w3.org/Graphics/SVG/1.1/DTD/svg11.dtd">
<svg version="1.1" id="Layer_1" xmlns="http://www.w3.org/2000/svg" xmlns:xlink="http://www.w3.org/1999/xlink" x="0px" y="0px"
	 viewBox="-14 0 248 216" enable-background="new -14 0 248 216" xml:space="preserve">
<path fill="#CCCCCC" stroke="#000000" stroke-miterlimit="10" d="M209,70.7H7c-3.4,0-6.1-2.7-6.1-6.1V32.3c0-3.4,2.7-6.1,6.1-6.1
	H209c3.4,0,6.1,2.7,6.1,6.1v32.3C215.2,68,212.4,70.7,209,70.7z"/>
<path fill="#CCCCCC" stroke="#000000" stroke-miterlimit="10" d="M209,130.2H7c-3.4,0-6.1-2.7-6.1-6.1V91.8c0-3.4,2.7-6.1,6.1-6.1
	H209c3.4,0,6.1,2.7,6.1,6.1V124C215.2,127.4,212.4,130.2,209,130.2z"/>
<path fill="#CCCCCC" stroke="#000000" stroke-miterlimit="10" d="M209,195.8H7c-3.4,0-6.1-2.7-6.1-6.1v-32.3c0-3.4,2.7-6.1,6.1-6.1
	H209c3.4,0,6.1,2.7,6.1,6.1v32.3C215.2,193.1,212.4,195.8,209,195.8z"/>
</svg>
