<?xml version="1.0" encoding="utf-8"?>
<!-- Generator: Adobe Illustrator 18.1.0, SVG Export Plug-In . SVG Version: 6.00 Build 0)  -->
<!DOCTYPE svg PUBLIC "-//W3C//DTD SVG 1.1//EN" "http://www.w3.org/Graphics/SVG/1.1/DTD/svg11.dtd">
<svg version="1.1" id="Layer_1" xmlns="http://www.w3.org/2000/svg" xmlns:xlink="http://www.w3.org/1999/xlink" x="0px" y="0px"
	 viewBox="0 0 127.2 87.9" enable-background="new 0 0 127.2 87.9" xml:space="preserve">
<path fill="#CCCCCC" stroke="#000000" stroke-miterlimit="10" d="M123.1,26.7H4.1c-2,0-3.6-1.6-3.6-3.6v-19c0-2,1.6-3.6,3.6-3.6h119
	c2,0,3.6,1.6,3.6,3.6v19C126.7,25.1,125.1,26.7,123.1,26.7z"/>
<path fill="#CCCCCC" stroke="#000000" stroke-miterlimit="10" d="M123.1,57H4.1c-2,0-3.6-1.6-3.6-3.6v-19c0-2,1.6-3.6,3.6-3.6h119
	c2,0,3.6,1.6,3.6,3.6v19C126.7,55.4,125.1,57,123.1,57z"/>
<path fill="#CCCCCC" stroke="#000000" stroke-miterlimit="10" d="M123.1,87.4H4.1c-2,0-3.6-1.6-3.6-3.6v-19c0-2,1.6-3.6,3.6-3.6h119
	c2,0,3.6,1.6,3.6,3.6v19C126.7,85.8,125.1,87.4,123.1,87.4z"/>
</svg>
